<?xml version="1.0" standalone="no"?>
<!DOCTYPE svg PUBLIC "-//W3C//DTD SVG 20010904//EN"
 "http://www.w3.org/TR/2001/REC-SVG-20010904/DTD/svg10.dtd">
<svg version="1.0" xmlns="http://www.w3.org/2000/svg"
 width="304.000000pt" height="166.000000pt" viewBox="0 0 304.000000 166.000000"
 preserveAspectRatio="xMidYMid meet">
<metadata>
Created by potrace 1.15, written by Peter Selinger 2001-2017
</metadata>
<g transform="translate(0.000000,166.000000) scale(0.100000,-0.100000)"
fill="#000000" stroke="none">
<path d="M557 1638 c11 -13 26 -34 32 -48 10 -19 3 -16 -26 15 -40 41 -76 49
-87 19 -4 -10 3 -14 27 -14 30 0 33 -3 35 -35 2 -26 -2 -37 -15 -42 -25 -9
-42 -34 -36 -53 3 -8 -4 -5 -16 9 -12 13 -27 21 -36 17 -13 -5 -13 -8 3 -24
10 -10 26 -21 35 -25 23 -9 21 -23 -2 -30 -12 -3 -19 -13 -18 -28 0 -13 -4
-33 -8 -43 -6 -14 -5 -17 3 -12 8 4 12 0 13 -11 0 -14 2 -14 9 5 5 12 16 22
25 22 8 0 15 8 14 18 0 10 -3 12 -6 5 -2 -7 -9 -13 -14 -13 -15 0 -10 36 6 50
8 7 12 17 8 23 -3 6 -1 7 6 3 18 -11 40 18 47 64 9 52 25 33 22 -25 -1 -23 1
-45 4 -50 3 -6 -5 -18 -18 -28 -24 -18 -24 -18 -32 4 -6 14 -11 18 -16 11 -4
-6 2 -20 14 -32 11 -11 20 -17 20 -12 0 12 20 -22 20 -35 0 -7 -7 -13 -15 -13
-8 0 -15 5 -15 11 0 5 5 7 10 4 6 -3 10 -1 10 4 0 14 -17 14 -25 1 -3 -5 -13
-6 -23 -3 -15 6 -15 5 -3 -10 7 -9 22 -17 32 -17 22 0 23 -8 5 -32 -13 -17
-61 -14 -50 3 3 5 0 9 -6 9 -7 0 -9 -7 -6 -16 7 -19 -12 -47 -26 -38 -6 4 -13
2 -17 -3 -3 -5 -17 -17 -31 -26 -13 -9 -19 -17 -12 -17 27 0 10 -17 -18 -18
-17 0 -28 3 -25 8 3 4 -2 10 -10 14 -14 5 -20 -11 -16 -37 1 -5 -2 -6 -7 -3
-4 2 -14 1 -22 -5 -11 -6 -6 -9 18 -9 20 0 31 4 27 10 -3 6 -2 10 4 10 5 0 11
-5 13 -10 2 -6 20 -4 48 7 44 16 104 52 98 58 -7 7 -57 -8 -53 -15 3 -4 -4
-10 -15 -13 -27 -7 -25 7 3 20 52 25 78 33 72 23 -3 -5 -2 -10 4 -10 5 0 28
23 50 51 48 61 53 55 11 -11 -76 -119 -237 -171 -373 -120 -98 37 -178 126
-196 221 -7 34 -9 10 -10 -98 l-1 -142 41 14 c83 30 152 13 206 -48 43 -50 59
-109 44 -166 -32 -120 -153 -176 -274 -126 -16 7 -18 3 -15 -34 1 -25 8 -46
17 -52 14 -9 13 -10 -1 -5 -15 5 -18 -1 -18 -39 0 -35 3 -43 15 -39 10 4 13 0
10 -15 -2 -14 1 -21 11 -21 8 0 14 -5 14 -11 0 -5 -4 -7 -10 -4 -5 3 -10 0
-10 -9 0 -8 -5 -16 -12 -18 -16 -6 -25 -158 -9 -158 6 0 11 7 11 16 0 8 5 12
10 9 6 -3 10 -14 10 -24 0 -10 11 -24 25 -31 14 -7 25 -18 26 -24 3 -48 12
-70 38 -91 26 -23 29 -30 24 -63 -6 -34 -34 -72 -54 -72 -14 0 -63 23 -81 38
-16 14 -18 13 -18 -4 0 -11 9 -37 20 -59 11 -22 20 -52 20 -67 l0 -28 135 0
c128 0 138 1 176 26 24 15 48 23 57 19 16 -6 16 -7 0 -19 -10 -7 -18 -16 -18
-20 0 -3 42 -6 94 -6 l94 0 37 41 c38 42 88 69 128 69 37 0 105 -50 112 -82 6
-24 11 -28 41 -28 l35 0 -21 22 c-30 33 -42 86 -27 118 l13 25 -56 -18 c-69
-23 -122 -12 -175 34 -64 57 -73 163 -20 233 37 49 73 66 136 66 103 0 174
-70 174 -171 l0 -57 43 40 c40 37 47 40 84 34 30 -5 38 -4 32 6 -12 19 -13 52
-1 66 5 7 7 28 4 47 -4 21 -2 35 5 35 5 0 8 6 5 14 -10 25 8 33 110 48 6 1 9
7 7 13 -3 7 2 18 11 25 14 11 18 11 25 1 4 -8 12 -11 16 -8 13 7 47 -20 40
-31 -3 -5 6 -7 22 -4 24 5 25 3 14 -11 -8 -9 -11 -25 -7 -37 4 -12 2 -27 -4
-33 -16 -20 3 -39 35 -35 26 3 29 6 26 33 l-3 30 36 -35 c20 -19 41 -35 48
-35 38 -3 68 -45 32 -45 -8 0 -15 -9 -15 -21 0 -11 -5 -30 -11 -41 -6 -12 -7
-18 -1 -14 5 3 12 -1 16 -9 3 -8 15 -15 27 -15 18 0 20 -4 15 -26 -5 -17 -3
-23 4 -19 5 3 10 0 10 -8 0 -8 -7 -17 -15 -21 -8 -3 -15 -15 -15 -26 0 -19 2
-20 21 -6 24 16 60 64 39 51 -9 -6 -11 -4 -6 4 5 7 15 10 23 7 8 -3 11 -1 8 4
-10 15 23 24 48 13 14 -7 27 -27 35 -56 17 -55 14 -63 -59 -149 l-31 -38 153
0 152 0 -19 21 c-19 22 -19 22 3 10 12 -6 25 -16 28 -21 7 -11 683 -14 723 -4
28 8 29 24 1 24 -11 0 -17 -4 -14 -10 3 -5 -1 -10 -9 -10 -20 0 -29 17 -14 24
7 3 4 4 -7 1 -15 -4 -33 8 -65 40 -24 25 -50 45 -58 45 -7 0 -11 4 -8 8 6 9
-13 104 -23 115 -4 4 -3 38 3 75 5 37 8 99 7 137 l-2 70 63 18 c35 10 83 27
108 39 25 11 74 24 110 29 36 4 80 11 98 15 28 5 34 3 38 -14 6 -22 76 -58 93
-48 7 4 11 -1 11 -13 0 -11 7 -27 16 -35 14 -15 14 -16 -4 -16 -30 0 -53 -11
-46 -21 3 -5 9 -7 14 -4 4 3 7 -3 6 -13 -1 -12 7 -17 26 -18 l26 -1 1 132 2
132 -42 6 c-26 3 -52 15 -67 30 -36 37 -21 51 49 44 l58 -5 1 295 0 295 -43
-39 c-23 -21 -53 -46 -65 -55 l-24 -16 21 -29 c25 -34 19 -65 -18 -90 -14 -10
-29 -18 -33 -19 -5 -1 -10 -3 -13 -4 -20 -10 -85 11 -85 28 0 4 -4 13 -8 20
-7 10 -18 9 -54 -7 -36 -15 -46 -25 -51 -49 -14 -67 -90 -122 -172 -122 -79 0
-133 42 -163 125 -10 29 -25 51 -38 55 -20 8 -20 6 -16 -126 l5 -134 -35 0
-35 0 -5 151 c-5 135 -8 152 -26 164 -17 13 -18 19 -9 59 14 61 -5 124 -55
181 -34 39 -42 43 -63 35 -18 -7 -25 -6 -25 3 0 7 -7 4 -15 -6 -7 -11 -11 -26
-8 -35 5 -12 10 -11 26 9 18 23 19 23 33 4 8 -10 23 -44 35 -74 25 -69 47
-104 59 -96 13 8 13 4 -4 -37 -8 -19 -22 -40 -30 -48 -25 -20 -19 -32 8 -15
23 15 23 15 29 -37 4 -29 7 -99 7 -155 l0 -103 -35 0 -35 0 0 136 0 136 -32
-6 c-88 -18 -93 -18 -122 5 -36 28 -86 106 -86 133 0 13 8 4 21 -24 20 -45 75
-110 93 -110 5 0 1 10 -10 23 l-19 22 25 -21 c24 -21 25 -21 44 -3 11 11 26
19 33 19 11 0 11 6 -1 35 -17 41 -6 46 19 9 22 -35 29 -25 15 24 -10 40 -11
40 -43 31 -17 -6 -49 -12 -69 -14 -32 -3 -41 1 -58 26 -20 27 -60 43 -44 17 4
-7 3 -8 -4 -4 -15 9 19 75 36 69 6 -3 12 -9 12 -14 0 -5 5 -9 12 -9 6 0 3 10
-8 21 -19 22 -19 22 3 11 17 -10 22 -9 27 4 7 19 -40 88 -54 79 -13 -8 -40 6
-40 20 0 7 6 18 14 24 8 7 13 20 11 29 -2 9 -4 19 -4 22 -1 3 -5 -1 -10 -9
-13 -21 -31 -4 -31 30 0 34 17 39 23 7 4 -20 4 -19 6 5 1 25 -2 27 -39 27 -22
0 -40 -4 -40 -9 0 -5 -3 -17 -7 -27 -5 -13 -3 -16 10 -11 12 5 17 1 17 -13 0
-13 7 -20 19 -20 28 0 32 -12 16 -44 -8 -16 -12 -32 -9 -37 3 -5 -2 -9 -12 -9
-13 0 -16 7 -11 36 5 31 4 34 -13 29 -10 -3 -21 -1 -25 5 -8 13 -35 13 -35 -1
0 -6 13 -16 29 -22 20 -7 29 -17 29 -34 0 -18 -4 -21 -11 -14 -18 18 -26 13
-20 -11 l5 -23 -17 24 c-13 17 -20 20 -26 10 -5 -9 -10 -5 -15 15 -4 15 -12
25 -19 23 -6 -3 -31 3 -55 14 -51 23 -54 23 -47 5 4 -10 1 -13 -9 -9 -17 6
-19 34 -2 51 9 9 14 7 24 -6 12 -15 12 -15 7 6 -4 17 -1 22 13 22 15 0 16 2 5
9 -10 7 -7 9 11 8 25 -2 36 -27 11 -27 -7 0 -13 -10 -12 -22 0 -13 3 -17 6
-10 8 21 21 13 15 -10 -3 -14 -2 -19 6 -14 7 4 12 2 12 -5 0 -7 9 -2 20 11 24
28 25 34 4 26 -14 -5 -16 -1 -11 31 5 28 4 34 -4 23 -9 -12 -10 -10 -6 8 l5
22 -154 0 c-146 0 -154 -1 -154 -20 0 -14 -9 -21 -37 -26 -25 -5 -38 -3 -41 5
-2 6 -8 9 -13 5 -5 -3 -9 1 -9 9 0 17 -49 33 -60 20 -4 -4 -15 -29 -24 -55
-19 -51 -14 -88 10 -88 11 0 13 -6 9 -20 -5 -15 0 -21 19 -26 14 -3 34 -3 43
1 16 6 15 8 -7 26 -18 15 -19 18 -5 11 24 -11 45 -5 45 13 0 7 11 20 25 29 16
11 22 22 19 34 -5 15 -4 15 6 2 9 -11 13 -12 17 -2 2 6 9 10 14 6 5 -3 9 -1 9
5 0 17 59 43 88 39 25 -3 27 -6 24 -45 -2 -26 1 -43 7 -43 6 0 11 -7 11 -15 0
-8 5 -15 10 -15 6 0 10 -7 10 -15 0 -8 5 -15 11 -15 7 0 9 10 7 25 -4 21 -3
23 14 14 10 -6 28 -7 38 -4 11 4 20 2 20 -4 0 -5 8 -12 18 -15 9 -3 -3 -3 -28
0 l-45 4 41 -13 c91 -30 138 -78 150 -153 11 -74 -23 -143 -91 -185 -16 -11
-25 -19 -19 -19 7 0 20 -23 30 -50 20 -56 23 -55 48 13 15 41 21 47 46 47 16
0 32 -5 35 -11 4 -6 -12 -57 -36 -115 -42 -100 -45 -104 -75 -104 -28 0 -32 4
-46 48 l-15 47 -12 -27 c-6 -16 -16 -40 -21 -54 -8 -20 -16 -25 -37 -22 -25 3
-30 12 -62 111 -28 84 -33 110 -23 116 9 6 2 18 -27 47 -60 60 -71 131 -36
217 7 17 5 17 -34 -3 -40 -20 -81 -20 -81 1 0 5 -6 9 -14 9 -8 0 -22 10 -30
22 l-16 22 -24 -23 c-20 -19 -28 -21 -45 -12 -11 7 -23 24 -27 39 -11 52 -15
62 -30 77 -9 8 -12 15 -7 15 5 0 7 16 5 36 -4 28 -2 35 8 29 10 -6 12 -4 7 8
-3 9 -2 19 3 22 34 21 -15 25 -297 25 l-306 0 20 -22z m452 -16 c35 -25 71
-90 71 -126 0 -49 -36 -110 -79 -134 -112 -63 -239 16 -228 141 5 60 30 95 88
125 51 27 107 25 148 -6z m17 -376 c31 -31 39 -50 35 -83 -2 -14 6 -15 79 -17
l45 -1 2 -90 c1 -49 2 -96 2 -103 1 -7 5 -11 10 -7 5 3 12 1 16 -5 3 -5 -3
-10 -15 -10 -12 0 -18 -4 -15 -10 8 -13 -40 -24 -62 -15 -10 4 -37 7 -60 6
-46 -3 -97 19 -113 48 -13 26 -13 97 1 124 6 12 22 31 36 43 l25 21 -31 55
c-17 30 -31 60 -31 66 0 24 43 11 76 -22z m292 -68 c3 -30 7 -38 23 -38 28 0
27 -60 -1 -67 -18 -5 -20 -14 -20 -88 l0 -84 -27 4 c-16 2 -31 4 -35 4 -5 1
-8 36 -8 80 0 70 -2 79 -20 84 -15 4 -20 14 -20 36 0 24 4 31 20 31 17 0 20 7
20 41 0 39 1 40 33 37 29 -3 32 -6 35 -40z m-458 -43 c33 -17 60 -61 60 -99 0
-30 -14 -35 -114 -38 -66 -3 -69 -4 -52 -20 21 -22 64 -23 93 -3 19 13 23 13
43 -3 l22 -18 -33 -28 c-29 -25 -39 -28 -86 -24 -61 5 -96 31 -113 84 -19 55
15 134 65 155 32 13 84 10 115 -6z m1145 1 c43 -18 67 -55 63 -98 l-3 -33 -82
-3 c-83 -3 -94 -7 -71 -30 17 -17 59 -15 87 4 21 15 24 15 42 -3 20 -19 20
-20 -7 -46 -21 -21 -36 -27 -71 -27 -82 0 -133 46 -133 119 0 57 15 88 52 111
39 24 76 25 123 6z m-482 -286 c15 -13 -3 -50 -24 -50 -10 0 -19 -4 -19 -10 0
-5 7 -10 15 -10 10 0 15 -11 15 -35 0 -24 -5 -35 -15 -35 -12 0 -15 -16 -15
-85 l0 -85 -34 0 -34 0 -7 84 c-5 58 -12 86 -21 90 -22 8 -18 57 5 63 13 3 21
15 23 36 2 22 11 35 28 44 24 12 66 8 83 -7z m-919 -51 c3 -34 6 -104 6 -155
l0 -94 -35 0 -35 0 0 109 c0 59 -3 129 -6 155 l-7 46 35 0 35 0 7 -61z m1676
17 l0 -43 49 5 c40 3 52 1 70 -17 19 -19 21 -33 21 -121 0 -63 -4 -100 -11
-100 -5 0 1 -15 15 -32 52 -70 53 -156 2 -223 -63 -83 -172 -92 -260 -22 -24
18 -37 24 -34 15 4 -9 -1 -49 -11 -89 -20 -83 -6 -75 -138 -80 -64 -2 -113 26
-138 77 -33 71 17 183 93 204 71 19 152 4 165 -32 2 -7 5 8 5 33 2 62 16 96
59 137 40 37 37 19 42 260 l1 72 35 0 c35 0 35 0 35 -44z m-128 -43 c22 -20
23 -36 3 -53 -12 -10 -21 -10 -41 -1 -36 16 -26 -3 16 -31 45 -30 60 -70 39
-106 -21 -39 -60 -49 -112 -32 -44 16 -58 40 -36 66 10 13 15 13 35 -1 26 -17
54 -20 54 -6 0 5 -20 26 -45 46 -48 40 -60 63 -51 100 11 44 97 55 138 18z
m-1170 7 c17 0 20 -5 15 -29 -3 -16 -26 -69 -50 -117 -37 -76 -47 -89 -70 -92
-26 -3 -31 3 -82 112 -30 64 -55 118 -55 121 0 3 18 5 41 5 39 0 41 -2 62 -50
11 -27 24 -50 27 -50 3 0 18 25 33 56 20 41 32 54 43 50 9 -3 25 -6 36 -6z
m234 -24 c26 -26 34 -43 34 -69 0 -43 -10 -47 -101 -47 -69 0 -80 -5 -57 -28
17 -17 59 -15 85 3 18 13 26 13 43 3 27 -17 25 -32 -7 -58 -23 -18 -37 -21
-82 -18 -47 4 -59 10 -88 41 -76 83 -19 207 96 207 36 0 49 -6 77 -34z m507 6
c16 -14 16 -16 1 -34 -11 -11 -31 -18 -55 -18 -47 0 -52 -14 -47 -119 2 -44 0
-67 -6 -61 -6 6 -23 10 -38 10 -16 0 -28 5 -28 13 0 7 -2 61 -4 120 l-3 107
58 -2 c32 -1 62 1 65 5 8 8 35 -2 57 -21z m233 -6 c26 -26 34 -43 34 -69 0
-43 -10 -47 -101 -47 -69 0 -80 -5 -57 -28 17 -17 59 -15 86 4 21 15 25 15 42
-1 10 -9 17 -22 14 -29 -9 -22 -62 -46 -104 -46 -36 0 -48 6 -81 39 -33 32
-39 45 -39 79 0 22 4 52 10 66 14 37 67 66 119 66 36 0 49 -6 77 -34z m-1234
-81 c0 -52 1 -101 2 -107 1 -8 -14 -14 -35 -16 l-36 -3 -6 83 c-12 144 -13
138 33 138 l40 0 2 -95z m-327 -25 c43 -8 41 -8 -22 -4 -65 5 -73 3 -83 -16
-16 -29 5 -54 38 -45 28 7 72 -33 72 -67 0 -18 5 -20 47 -16 54 4 84 -13 76
-43 -6 -21 -23 -26 -23 -6 0 8 -16 12 -46 12 -38 -1 -48 -5 -54 -21 -12 -30
-35 -45 -72 -46 -18 -1 -43 -8 -56 -16 -30 -19 -39 -9 -21 25 7 16 15 32 18
37 2 5 -4 6 -13 3 -11 -4 -15 -3 -10 4 8 14 -14 29 -44 29 -31 0 -78 25 -86
47 -6 15 -4 14 15 -3 22 -18 22 -18 15 0 -5 16 -4 17 9 6 14 -12 99 -10 111 3
3 3 1 21 -4 41 -9 30 -7 40 10 61 21 27 39 29 123 15z"/>
<path d="M838 1602 c-49 -35 -65 -85 -43 -133 l16 -34 -6 30 c-6 34 6 87 21
92 6 2 8 -11 6 -31 -6 -49 23 -72 83 -68 44 4 45 5 29 23 -11 12 -14 27 -10
44 5 19 3 25 -10 25 -14 0 -15 7 -10 40 6 37 4 40 -16 39 -13 0 -40 -13 -60
-27z"/>
<path d="M2212 539 c-32 -16 -41 -26 -37 -39 4 -14 1 -17 -12 -14 -14 4 -22
-3 -31 -29 -24 -66 -11 -121 41 -174 31 -33 71 -45 61 -19 -3 8 0 17 7 22 8 4
10 3 5 -4 -4 -7 -3 -12 3 -12 6 0 8 -7 5 -15 -5 -12 2 -15 32 -14 93 2 152 54
161 141 4 48 2 57 -26 96 -32 44 -100 82 -144 82 -12 0 -41 -10 -65 -21z"/>
<path d="M1553 1460 c-66 -15 -111 -67 -120 -137 -11 -97 54 -175 145 -175 51
0 117 26 107 42 -4 6 1 10 9 10 33 0 60 86 45 146 -12 48 -75 114 -108 114
-11 0 -25 2 -33 4 -7 2 -27 1 -45 -4z"/>
<path d="M2455 1313 c-67 -18 -122 -104 -110 -172 8 -46 34 -87 71 -112 35
-23 113 -25 152 -5 106 55 115 204 17 266 -33 21 -97 32 -130 23z"/>
<path d="M90 1133 c-8 -3 -32 -12 -53 -20 l-38 -16 3 -126 3 -126 39 -19 c34
-17 44 -17 92 -7 127 29 172 181 80 270 -30 29 -96 52 -126 44z"/>
<path d="M1260 509 c0 -5 -7 -6 -15 -3 -8 4 -15 2 -15 -4 0 -16 39 -21 54 -6
12 12 16 9 25 -17 13 -37 6 -53 -21 -46 -13 4 -22 -1 -28 -18 -5 -13 -19 -30
-31 -39 -19 -13 -21 -19 -11 -38 6 -13 14 -34 17 -46 5 -17 12 -22 25 -19 11
3 21 0 23 -6 2 -8 10 -9 27 -1 27 12 38 74 13 74 -11 0 -13 5 -8 18 17 39 21
91 11 123 -9 27 -16 34 -38 35 -16 1 -28 -3 -28 -7z"/>
<path d="M735 449 c-4 -6 2 -13 13 -16 13 -3 22 -16 27 -39 3 -20 12 -34 20
-34 12 0 12 5 4 27 -7 20 -7 28 3 34 9 6 14 1 16 -16 2 -13 10 -29 18 -35 16
-14 19 -50 4 -50 -5 0 -10 5 -10 10 0 6 -4 10 -10 10 -5 0 -10 -10 -10 -22 -1
-23 -1 -23 -23 3 -13 14 -31 28 -41 32 -13 5 -17 14 -12 31 5 19 1 25 -17 30
-18 5 -20 8 -7 16 9 6 10 10 3 10 -19 0 -26 -20 -13 -35 12 -15 10 -17 -20
-19 -9 -1 -15 -11 -15 -27 0 -17 -4 -25 -11 -22 -17 6 -26 -30 -15 -58 7 -18
10 -19 10 -6 1 10 8 20 16 23 8 4 15 17 15 29 0 13 5 27 11 31 16 9 59 -44 59
-73 0 -29 -10 -29 -35 -1 l-19 23 -7 -28 c-6 -22 -2 -33 17 -52 14 -14 32 -25
40 -25 8 0 12 -5 9 -11 -4 -6 -13 -8 -21 -5 -8 3 -14 1 -14 -3 0 -11 25 -21
51 -21 14 0 18 6 17 24 -1 14 -5 23 -9 21 -3 -3 -14 4 -24 15 -10 12 -13 20
-7 20 7 0 12 7 12 15 0 8 5 15 11 15 6 0 22 9 36 20 14 11 30 17 35 14 7 -4 6
-9 0 -13 -14 -8 7 -52 27 -59 10 -3 11 2 6 18 -5 15 -4 20 4 16 6 -4 11 -14
11 -21 0 -9 6 -12 15 -9 18 7 20 31 4 36 -9 3 -9 9 0 25 6 12 11 30 11 39 0
16 -1 16 -14 -1 -12 -17 -16 -17 -30 -6 -9 8 -14 21 -11 32 3 9 2 20 -4 23 -5
3 -7 15 -4 27 7 25 -14 41 -41 33 -12 -4 -16 -2 -12 5 5 7 -5 11 -28 11 -19 0
-38 -5 -41 -11z"/>
<path d="M2995 164 c-16 -13 -29 -29 -27 -35 1 -5 -10 -2 -25 8 -15 10 -24 12
-20 6 5 -8 3 -13 -5 -13 -9 0 -9 -3 2 -10 12 -8 10 -14 -15 -40 l-29 -30 25
-1 24 0 -23 -10 c-13 -5 -33 -16 -45 -25 -21 -16 -21 -16 13 -11 19 3 44 9 54
13 14 5 17 4 12 -4 -5 -9 9 -12 48 -12 l56 0 0 58 c0 52 -1 55 -13 32 -10 -19
-19 -24 -39 -22 -18 2 -31 -4 -42 -20 -12 -16 -16 -18 -16 -6 0 8 7 21 15 28
8 7 15 17 15 22 0 16 27 38 52 41 13 2 25 12 26 22 6 30 -12 34 -43 9z"/>
</g>
</svg>
